<svg width="21" height="20" viewBox="0 0 21 20" fill="none" xmlns="http://www.w3.org/2000/svg">
<path d="M15.3604 1L15.3604 0H15.3604V1ZM19.3604 5H20.3604H19.3604ZM19.3604 10.7705L20.3604 10.7706V10.7705H19.3604ZM15.3604 14.7705V15.7705H15.3604L15.3604 14.7705ZM14.9873 14.7705V13.7705H14.5189L14.2191 14.1303L14.9873 14.7705ZM12.4883 17.7695L13.2564 18.4099L13.2565 18.4097L12.4883 17.7695ZM10.7197 14.7705H11.7197V13.7705H10.7197V14.7705ZM5 14.7705L5 15.7705H5V14.7705ZM1 10.7705H0V10.7706L1 10.7705ZM5 1V0V1ZM15.3604 1L15.3603 2C17.0172 2.00007 18.3604 3.34325 18.3604 5H19.3604H20.3604C20.3604 2.23859 18.1217 0.000116229 15.3604 0L15.3604 1ZM19.3604 5H18.3604V10.7705H19.3604H20.3604V5H19.3604ZM19.3604 10.7705L18.3604 10.7704C18.3602 12.4272 17.0169 13.7704 15.3603 13.7705L15.3604 14.7705L15.3604 15.7705C18.1216 15.7704 20.3601 13.5317 20.3604 10.7706L19.3604 10.7705ZM15.3604 14.7705V13.7705H14.9873V14.7705V15.7705H15.3604V14.7705ZM14.9873 14.7705L14.2191 14.1303L11.72 17.1294L12.4883 17.7695L13.2565 18.4097L15.7555 15.4107L14.9873 14.7705ZM12.4883 17.7695L11.7202 17.1292L11.7197 17.1289H10.7197H9.71973C9.71973 18.9991 12.0586 19.8466 13.2564 18.4099L12.4883 17.7695ZM10.7197 17.1289H11.7197V14.7705H10.7197H9.71973V17.1289H10.7197ZM10.7197 14.7705V13.7705H5V14.7705V15.7705H10.7197V14.7705ZM5 14.7705L5 13.7705C3.34336 13.7705 2.00015 12.4273 2 10.7704L1 10.7705L0 10.7706C0.000251532 13.5317 2.23861 15.7705 5 15.7705L5 14.7705ZM1 10.7705H2V5H1H0V10.7705H1ZM1 5H2C2 3.34315 3.34315 2 5 2V1V0C2.23858 5.96046e-08 0 2.23858 0 5H1ZM5 1V2H15.3604V1V0H5V1Z" fill="white" fill-opacity="0.8"/>
</svg>
