<svg width="32" height="26" viewBox="0 0 32 26" fill="none" xmlns="http://www.w3.org/2000/svg">
<path d="M14.7878 2.17329C13.3389 2.58275 11.9846 3.14969 10.7247 3.87412C9.49632 4.59855 8.40967 5.44896 7.46477 6.42537C6.55136 7.37028 5.82693 8.39392 5.29148 9.49632C4.75603 10.5987 4.48831 11.7326 4.48831 12.898C4.48831 13.5909 4.63004 14.2051 4.91352 14.7406C5.19699 15.2445 5.52771 15.4965 5.90567 15.4965C6.31513 15.4965 6.64585 15.4177 6.89782 15.2603C7.18129 15.1028 7.46477 14.9295 7.74824 14.7406C8.03171 14.5516 8.34668 14.3783 8.69315 14.2209C9.07111 14.0634 9.55931 13.9846 10.1578 13.9846C10.7877 13.9846 11.3704 14.1264 11.9058 14.4098C12.4728 14.6618 12.961 15.024 13.3704 15.4965C13.8114 15.9689 14.1579 16.5359 14.4098 17.1973C14.6618 17.8587 14.7878 18.5674 14.7878 19.3234C14.7878 20.1423 14.6146 20.8982 14.2681 21.5911C13.9216 22.2841 13.4492 22.8825 12.8507 23.3865C12.2838 23.8904 11.6066 24.2999 10.8192 24.6148C10.0633 24.8983 9.24434 25.04 8.36243 25.04C7.19704 25.04 6.1104 24.7881 5.1025 24.2841C4.0946 23.7487 3.21268 23.04 2.45676 22.1581C1.70083 21.2447 1.10239 20.2053 0.661435 19.0399C0.220478 17.843 0 16.5674 0 15.213C0 13.0712 0.393711 11.1027 1.18113 9.30733C2.00005 7.51201 3.07095 5.95291 4.39382 4.63004C5.74819 3.27568 7.32303 2.20478 9.11835 1.41736C10.9137 0.598441 12.8035 0.125988 14.7878 0V2.17329ZM31.8434 2.17329C30.426 2.58275 29.0874 3.14969 27.8275 3.87412C26.5676 4.59855 25.481 5.44896 24.5676 6.42537C23.6542 7.37028 22.9297 8.39392 22.3943 9.49632C21.8589 10.5987 21.5911 11.7326 21.5911 12.898C21.5911 13.5909 21.7171 14.2051 21.9691 14.7406C22.2526 15.2445 22.599 15.4965 23.0085 15.4965C23.4179 15.4965 23.7487 15.4177 24.0006 15.2603C24.2841 15.1028 24.5518 14.9295 24.8038 14.7406C25.0873 14.5516 25.4023 14.3783 25.7487 14.2209C26.1267 14.0634 26.6149 13.9846 27.2133 13.9846C27.8433 13.9846 28.426 14.1264 28.9614 14.4098C29.5283 14.6618 30.0166 15.024 30.426 15.4965C30.867 15.9689 31.2134 16.5359 31.4654 17.1973C31.7174 17.8587 31.8434 18.5674 31.8434 19.3234C31.8434 20.1423 31.6701 20.8982 31.3237 21.5911C31.0087 22.2841 30.552 22.8825 29.9536 23.3865C29.3866 23.8904 28.7094 24.2999 27.922 24.6148C27.1346 24.8983 26.2999 25.04 25.418 25.04C24.2526 25.04 23.166 24.7881 22.1581 24.2841C21.1502 23.7487 20.2683 23.04 19.5123 22.1581C18.7564 21.2447 18.158 20.2053 17.717 19.0399C17.2761 17.843 17.0556 16.5674 17.0556 15.213C17.0556 13.0712 17.4493 11.1027 18.2367 9.30733C19.0556 7.51201 20.1423 5.95291 21.4966 4.63004C22.851 3.27568 24.4101 2.20478 26.1739 1.41736C27.9693 0.598441 29.8591 0.125988 31.8434 0V2.17329Z" fill="#34C987"/>
</svg>
