<svg width="43" height="37" viewBox="0 0 43 37" fill="none" xmlns="http://www.w3.org/2000/svg">
<path d="M6.73535 36.1573C6.73535 36.335 6.83417 36.4776 6.95275 36.4776C10.9296 36.4776 14.9064 36.7342 18.8832 36.7342C23.1191 36.7342 30.2009 37.5678 32.6493 36.2824C34.5971 35.4751 35.862 33.6961 36.3934 31.2217C38.0469 23.509 42.6957 0 42.6957 0L16.7048 0.063615L10.7495 30.9804L6.73535 36.1573Z" fill="#F9F9F9"/>
<path d="M30.5959 36.8458C30.5959 36.8458 22.5524 38.8227 22.2955 26.9004H0.189213C0.189213 26.9004 -1.63998 34.578 6.07646 36.9735H29.159L30.5959 36.8458Z" fill="#E8E8E8"/>
<path d="M24.4341 28.2615C27.0021 26.9895 32.0001 19.859 29.6903 19.972C27.2567 22.5762 25.138 27.6608 25.5695 31.2579C27.7095 31.5123 28.7317 28.311 30.189 27.1803C30.1077 30.9717 33.1921 28.5442 34.3947 26.8835" stroke="#34C987" stroke-width="1.3958" stroke-miterlimit="10"/>
</svg>
