<svg width="60" height="49" viewBox="0 0 60 49" fill="none" xmlns="http://www.w3.org/2000/svg">
<path d="M44.2109 1C48.0009 1.00008 51.5729 3.40229 54.2461 7.5791C56.912 11.7447 58.5937 17.5602 58.5938 24.0352C58.5938 30.5104 56.9121 36.3265 54.2461 40.4922C51.5729 44.669 48.0009 47.0702 44.2109 47.0703C40.421 47.0703 36.849 44.6689 34.1758 40.4922C31.5097 36.3265 29.8281 30.5104 29.8281 24.0352C29.8282 17.5601 31.5098 11.7447 34.1758 7.5791C36.849 3.40221 40.4209 1 44.2109 1Z" fill="white" stroke="black" stroke-width="2"/>
<ellipse cx="49.9764" cy="23.074" rx="9.61413" ry="11.537" fill="black"/>
<path d="M15.3828 1.00073C19.1728 1.00082 22.7448 3.40302 25.418 7.57983C28.0838 11.7455 29.7656 17.5609 29.7656 24.0359C29.7656 30.5112 28.084 36.3272 25.418 40.4929C22.7448 44.6697 19.1728 47.071 15.3828 47.071C11.5928 47.071 8.02085 44.6697 5.34766 40.4929C2.68161 36.3272 1 30.5112 1 24.0359C1.00003 17.5608 2.68172 11.7455 5.34766 7.57983C8.02086 3.40295 11.5928 1.00073 15.3828 1.00073Z" fill="white" stroke="black" stroke-width="2"/>
<ellipse cx="21.1483" cy="23.0749" rx="9.61413" ry="11.537" fill="black"/>
</svg>
