<svg width="22" height="18" viewBox="0 0 22 18" fill="none" xmlns="http://www.w3.org/2000/svg">
<path d="M11.8789 3.20996C14.0286 1.08406 16.2428 0.922287 17.8584 1.62402C19.5381 2.35365 20.75 4.07991 20.75 6.11816C20.7499 8.24795 19.8397 9.90569 18.4717 11.3701C17.4133 12.503 16.1511 13.4534 14.8721 14.3936L13.5938 15.3369C13.011 15.7738 12.5174 16.1372 12.0488 16.3975C11.5812 16.6572 11.2484 16.75 11 16.75C10.7516 16.75 10.4188 16.6572 9.95117 16.3975C9.5997 16.2022 9.23397 15.9491 8.82715 15.6504L8.40625 15.3369C6.71319 14.0665 4.93958 12.8807 3.52832 11.3701C2.16027 9.90569 1.25011 8.24795 1.25 6.11816C1.25 4.07991 2.46192 2.35365 4.1416 1.62402C5.75725 0.922286 7.97137 1.08406 10.1211 3.20996L11 4.0791L11.8789 3.20996Z" stroke="white" stroke-width="2.5"/>
</svg>
