<svg width="24" height="24" viewBox="0 0 24 24" fill="none" xmlns="http://www.w3.org/2000/svg">
<path d="M12.8789 6.20996C15.0286 4.08406 17.2428 3.92229 18.8584 4.62402C20.5381 5.35365 21.75 7.07991 21.75 9.11816C21.7499 11.2479 20.8397 12.9057 19.4717 14.3701C18.4133 15.503 17.1511 16.4534 15.8721 17.3936L14.5938 18.3369C14.011 18.7738 13.5174 19.1372 13.0488 19.3975C12.5812 19.6572 12.2484 19.75 12 19.75C11.7516 19.75 11.4188 19.6572 10.9512 19.3975C10.5997 19.2022 10.234 18.9491 9.82715 18.6504L9.40625 18.3369C7.71319 17.0665 5.93958 15.8807 4.52832 14.3701C3.16027 12.9057 2.25011 11.2479 2.25 9.11816C2.25 7.07991 3.46192 5.35365 5.1416 4.62402C6.75725 3.92229 8.97137 4.08406 11.1211 6.20996L12 7.0791L12.8789 6.20996Z" stroke="black" stroke-width="2.5"/>
</svg>
