<svg width="24" height="24" viewBox="0 0 24 24" fill="none" xmlns="http://www.w3.org/2000/svg">
<path d="M12.5 6.30176C14.6908 6.30179 16.8567 7.35058 18.6182 8.64746C20.9405 10.3573 20.9934 13.6913 18.6836 15.418C17.0051 16.6726 14.8727 17.7021 12.5 17.7021C10.1272 17.7021 7.99392 16.6727 6.31543 15.418C4.00616 13.6913 4.0591 10.3573 6.38086 8.64746C8.14236 7.35054 10.3091 6.30176 12.5 6.30176ZM12.5 8.83398C10.7511 8.83398 9.33301 10.2521 9.33301 12.001C9.33317 13.7497 10.7512 15.167 12.5 15.167C14.2486 15.1667 15.6659 13.7496 15.666 12.001C15.666 10.2522 14.2487 8.83423 12.5 8.83398Z" fill="white"/>
</svg>
