<svg width="24" height="24" viewBox="0 0 24 24" fill="none" xmlns="http://www.w3.org/2000/svg">
<rect width="24" height="24" rx="12" fill="white"/>
<path d="M11.9996 5C8.13362 5 4.99963 7.6778 4.99963 10.9809C4.99963 13.1165 6.30986 14.9903 8.28075 16.0485C8.17352 16.4492 7.59173 18.6264 7.56855 18.7975C7.56855 18.7975 7.55463 18.9259 7.63142 18.975C7.70824 19.024 7.79854 18.9859 7.79854 18.9859C8.01878 18.9526 10.3524 17.1762 10.7563 16.8678C11.1599 16.9297 11.5753 16.9619 11.9996 16.9619C15.8656 16.9619 18.9996 14.2842 18.9996 10.9809C18.9996 7.6778 15.8656 5 11.9996 5Z" fill="#381F1F"/>
</svg>
