<svg width="16" height="16" viewBox="0 0 16 16" fill="none" xmlns="http://www.w3.org/2000/svg">
<path d="M10.9997 3L3.33301 7.66667L10.9997 12.3333" stroke="#5C5C5C"/>
<path d="M10.9995 1.16797C12.0119 1.16797 12.8333 1.9886 12.8335 3.00098C12.8335 4.0135 12.012 4.83496 10.9995 4.83496C9.98714 4.83479 9.1665 4.01339 9.1665 3.00098C9.16668 1.98871 9.98725 1.16814 10.9995 1.16797Z" fill="white" stroke="#5C5C5C"/>
<path d="M10.9995 10.5C12.0119 10.5 12.8333 11.3206 12.8335 12.333C12.8335 13.3455 12.012 14.167 10.9995 14.167C9.98714 14.1668 9.1665 13.3454 9.1665 12.333C9.16668 11.3207 9.98725 10.5002 10.9995 10.5Z" fill="white" stroke="#5C5C5C"/>
<circle cx="3.66634" cy="7.66927" r="1.83333" fill="white" stroke="#5C5C5C"/>
</svg>
