<svg width="17" height="17" viewBox="0 0 17 17" fill="none" xmlns="http://www.w3.org/2000/svg">
<path d="M3.62906 6.49084C3.31546 6.49084 3.05786 6.74845 3.05786 7.06205C3.05786 7.37565 3.31546 7.63324 3.62906 7.63324C3.94266 7.63324 4.20026 7.37565 4.20026 7.06205C4.20026 6.74845 3.94266 6.49084 3.62906 6.49084Z" fill="#2DB400"/>
<path d="M9.2742 7.65253C9.61441 7.65253 9.8902 7.37674 9.8902 7.03653C9.8902 6.69632 9.61441 6.42053 9.2742 6.42053C8.934 6.42053 8.6582 6.69632 8.6582 7.03653C8.6582 7.37674 8.934 7.65253 9.2742 7.65253Z" fill="#2DB400"/>
<path d="M14.392 0.800049H2.2176C0.9968 0.800049 0 1.79685 0 3.01765V10.2416C0 11.4736 0.9968 12.4592 2.2176 12.4592H6.5184L7.9856 15.8976C7.9856 15.8976 8.0864 16.2 8.3328 16.2C8.5792 16.2 8.68 15.8976 8.68 15.8976L10.1472 12.4592H14.4032C15.6352 12.4592 16.6208 11.4624 16.6208 10.2416V3.01765C16.6096 1.79685 15.6128 0.800049 14.392 0.800049ZM5.2192 7.18405C5.208 8.50565 3.8528 8.53925 3.8528 8.53925C3.3152 8.53925 3.024 8.19205 3.024 8.19205V8.42725H2.0272V4.32805C2.0832 4.33925 3.024 4.32805 3.024 4.32805V5.89605C3.2592 5.49285 3.9312 5.50405 3.9312 5.50405C5.3984 5.63845 5.2192 7.18405 5.2192 7.18405ZM6.9664 5.62725V8.43845H5.992V5.66085C5.992 5.28005 5.5216 5.17925 5.5216 5.17925V4.19365C7.0784 4.26085 6.9664 5.62725 6.9664 5.62725ZM9.2736 8.53925C8.3776 8.53925 7.6384 7.86725 7.6384 7.03845C7.6384 6.20965 8.3664 5.53765 9.2736 5.53765C10.1696 5.53765 10.9088 6.20965 10.9088 7.03845C10.9088 7.86725 10.1808 8.53925 9.2736 8.53925ZM14.6048 8.53925C14.6048 8.53925 14.616 9.96165 13.1712 9.96165H12.7344V9.04325H13.0032C13.0032 9.04325 13.608 9.09925 13.608 8.15845C13.608 8.15845 13.4848 8.53925 12.6336 8.53925C12.6336 8.53925 11.424 8.44965 11.424 7.27365V6.82565C11.424 6.82565 11.4464 5.60485 12.7792 5.50405C12.7792 5.50405 13.3056 5.44805 13.6304 5.88485V5.58245H14.616V8.53925H14.6048Z" fill="#2DB400"/>
<path d="M13.0582 7.64307C13.3922 7.64307 13.663 7.37229 13.663 7.03827C13.663 6.70425 13.3922 6.43347 13.0582 6.43347C12.7241 6.43347 12.4534 6.70425 12.4534 7.03827C12.4534 7.37229 12.7241 7.64307 13.0582 7.64307Z" fill="#2DB400"/>
</svg>
